<?xml version="1.0" standalone="no"?>
<!DOCTYPE svg PUBLIC "-//W3C//DTD SVG 20010904//EN"
 "http://www.w3.org/TR/2001/REC-SVG-20010904/DTD/svg10.dtd">
<svg version="1.0" xmlns="http://www.w3.org/2000/svg"
 width="1084.000000pt" height="1084.000000pt" viewBox="0 0 1084.000000 1084.000000"
 preserveAspectRatio="xMidYMid meet">
<metadata>
Created by potrace 1.11, written by Peter Selinger 2001-2013
</metadata>
<g transform="translate(0.000000,1084.000000) scale(0.100000,-0.100000)"
fill="#000000" stroke="none">
<path d="M880 10654 c-108 -24 -192 -92 -238 -192 -53 -114 -28 -320 59 -496
94 -188 258 -368 437 -480 128 -80 321 -64 476 39 91 60 239 226 298 335 119
218 103 328 -69 490 -47 44 -90 80 -95 80 -6 0 -22 8 -36 19 -95 67 -345 170
-452 186 -25 4 -47 8 -50 10 -10 6 -136 17 -208 19 -41 0 -95 -4 -122 -10z"/>
<path d="M9724 10659 c-21 -4 -61 -10 -89 -13 -222 -29 -515 -168 -665 -317
-89 -88 -122 -147 -125 -227 -6 -129 101 -319 277 -493 159 -157 351 -212 519
-150 64 24 206 133 293 224 112 118 195 253 242 391 31 90 39 142 39 251 0 79
-4 97 -28 145 -48 94 -121 155 -217 180 -51 14 -188 18 -246 9z"/>
<path d="M5237 10504 c-1 -1 -78 -5 -172 -8 -93 -4 -183 -8 -200 -10 -16 -2
-74 -7 -128 -11 -54 -3 -106 -8 -115 -10 -9 -1 -48 -6 -85 -10 -37 -3 -77 -8
-87 -10 -10 -2 -50 -7 -87 -10 -37 -4 -77 -9 -88 -11 -11 -3 -51 -9 -90 -14
-153 -22 -355 -58 -530 -94 -60 -13 -206 -48 -245 -60 -25 -8 -79 -24 -120
-36 -204 -61 -530 -194 -760 -310 -460 -230 -827 -530 -1152 -940 -349 -440
-597 -1004 -663 -1505 -4 -27 -9 -61 -11 -75 -10 -65 -18 -156 -31 -340 -15
-221 -8 -839 11 -950 3 -14 8 -52 11 -85 6 -57 8 -73 20 -162 6 -43 33 -208
39 -238 5 -28 19 -98 21 -110 2 -5 8 -37 15 -70 6 -33 27 -130 47 -215 19 -85
36 -162 38 -170 43 -198 199 -671 323 -980 178 -444 363 -810 627 -1243 194
-318 686 -993 885 -1217 18 -19 64 -71 103 -115 112 -126 334 -344 488 -480
122 -109 416 -320 537 -386 24 -13 51 -29 60 -34 232 -138 438 -230 666 -299
64 -20 126 -38 138 -40 157 -34 263 -55 308 -60 30 -3 73 -9 95 -12 102 -13
417 -19 505 -9 19 2 71 6 115 10 44 3 87 8 95 10 8 2 33 7 55 10 43 6 57 8
145 26 517 103 1094 411 1582 846 109 98 362 352 455 458 203 231 484 598 708
925 43 63 93 135 110 160 17 25 79 122 136 215 260 420 464 827 640 1277 39
101 75 192 79 203 4 11 18 49 30 85 12 36 26 74 31 85 39 90 207 706 235 860
3 17 14 71 24 120 11 50 22 108 25 130 4 22 8 47 11 56 2 9 7 34 10 55 2 22 6
46 9 54 2 8 7 39 10 69 4 30 8 62 10 72 2 10 7 49 10 86 4 37 8 75 10 83 3 13
9 82 21 238 4 62 4 549 0 631 -10 174 -17 288 -21 311 -2 14 -6 52 -10 85 -66
597 -301 1159 -691 1650 -190 239 -404 445 -649 626 -115 84 -100 75 -265 175
-353 214 -952 450 -1340 528 -165 33 -224 44 -270 51 -14 2 -65 11 -115 19
-49 8 -110 18 -135 21 -25 3 -52 8 -60 10 -8 2 -40 7 -70 10 -30 3 -66 8 -80
10 -47 9 -85 13 -155 20 -38 4 -82 8 -96 10 -14 2 -66 6 -115 10 -49 4 -102 9
-119 11 -74 9 -730 25 -738 18z m588 -178 c137 -8 213 -13 290 -21 169 -17
163 -16 278 -30 88 -11 234 -32 277 -40 14 -2 45 -7 70 -10 25 -3 52 -8 60
-10 8 -2 33 -6 55 -10 632 -93 1380 -389 1838 -727 489 -361 884 -876 1099
-1433 23 -59 86 -251 92 -280 3 -11 14 -58 25 -105 22 -94 46 -225 56 -310 3
-30 8 -68 10 -85 2 -16 7 -79 10 -140 3 -60 8 -129 10 -152 2 -23 0 -45 -6
-48 -20 -13 -49 -87 -79 -201 -75 -281 -162 -486 -288 -674 -89 -134 -186
-245 -381 -440 -149 -148 -214 -208 -361 -331 -64 -54 -623 -502 -710 -569
-25 -19 -54 -43 -65 -52 -49 -41 -239 -190 -335 -263 -58 -44 -107 -83 -110
-86 -3 -3 -48 -37 -100 -75 -243 -176 -450 -336 -506 -390 -284 -274 -487
-601 -580 -934 -34 -120 -39 -160 -38 -290 0 -131 21 -237 67 -350 90 -220
233 -369 451 -470 71 -33 310 -115 359 -124 15 -3 35 -7 45 -10 87 -26 428
-73 500 -68 19 2 21 -1 13 -16 -12 -22 -347 -351 -426 -418 -33 -28 -76 -65
-95 -81 -235 -199 -638 -440 -930 -556 -248 -99 -544 -166 -814 -184 -164 -10
-433 -4 -519 13 -12 2 -43 6 -68 9 -25 3 -56 8 -70 10 -13 3 -37 8 -54 11
-501 91 -1072 390 -1535 804 -101 90 -313 298 -373 366 l-36 41 37 1 c200 6
469 53 662 116 184 60 312 121 413 197 195 147 323 415 332 695 4 147 -17 252
-101 489 -27 75 -115 242 -180 342 -158 238 -323 408 -594 611 -387 290 -478
358 -640 486 -91 71 -179 141 -196 155 -17 15 -48 40 -69 56 -134 104 -621
496 -725 583 -144 121 -453 427 -557 552 -197 236 -317 481 -413 840 -17 63
-42 138 -57 167 -25 50 -25 55 -18 180 3 70 8 139 9 153 2 14 7 56 10 93 4 37
9 76 11 85 1 9 6 37 10 62 6 42 31 171 41 215 3 11 7 29 9 41 9 39 66 219 97
304 200 546 623 1105 1098 1449 47 33 90 65 95 69 6 4 60 39 120 77 132 83
326 182 495 254 69 28 134 56 145 61 136 63 569 198 715 224 14 2 63 11 110
20 106 21 290 53 350 61 25 3 56 8 70 10 14 3 43 7 65 10 39 4 96 12 143 20
13 2 53 7 90 11 37 3 74 8 82 9 9 2 60 6 115 10 55 4 109 9 119 11 11 2 96 6
190 10 94 4 172 8 173 9 6 4 515 -4 618 -9z"/>
<path d="M7057 9394 c-1 -1 -46 -4 -99 -7 -211 -13 -318 -49 -402 -134 -103
-105 -153 -278 -120 -420 23 -100 110 -243 196 -322 67 -60 133 -97 246 -136
467 -160 513 -186 628 -359 115 -174 209 -260 464 -423 230 -147 326 -181 510
-181 203 0 455 69 522 144 15 17 58 108 57 119 -1 3 2 38 6 78 4 39 9 88 11
107 6 63 5 224 -1 265 -18 112 -55 194 -143 310 -257 345 -746 692 -1187 845
-115 39 -255 75 -340 87 -22 3 -58 8 -81 12 -23 5 -72 9 -110 10 -38 1 -89 3
-112 4 -24 1 -44 1 -45 1z m563 -578 c59 -10 89 -21 117 -43 34 -25 73 -96 73
-133 0 -39 -29 -89 -62 -110 -53 -32 -80 -26 -145 31 -32 28 -79 62 -106 75
-51 27 -116 104 -117 141 0 46 25 56 129 49 53 -4 103 -8 111 -10z"/>
<path d="M3530 9385 c-8 -2 -49 -8 -90 -15 -370 -58 -739 -226 -1115 -508
-125 -94 -352 -320 -435 -432 -146 -197 -166 -313 -125 -708 11 -111 61 -187
149 -227 28 -13 96 -34 151 -46 128 -29 122 -28 246 -35 205 -12 318 28 599
214 210 139 308 231 405 377 77 116 105 147 170 187 53 33 203 93 405 163 91
31 188 71 215 87 107 66 237 231 274 349 59 187 -10 405 -162 507 -104 71
-213 90 -497 90 -96 -1 -182 -2 -190 -3z m-100 -575 c15 -15 19 -28 15 -43
-12 -42 -62 -100 -106 -124 -51 -29 -102 -66 -143 -105 -44 -42 -88 -38 -137
11 -33 32 -39 45 -39 80 0 71 50 147 114 171 17 6 55 13 85 17 31 3 57 6 58 7
1 0 31 2 67 4 55 2 69 -1 86 -18z"/>
<path d="M3923 7932 c-35 -5 -27 -22 7 -18 17 2 28 1 25 -2 -2 -3 0 -11 7 -19
8 -11 7 -12 -6 -7 -20 8 -21 -9 -1 -26 17 -14 20 -30 4 -30 -5 0 -8 4 -5 9 3
5 -2 15 -12 22 -16 13 -16 13 -2 -5 15 -19 14 -19 -12 -2 -31 20 -36 29 -13
20 18 -7 20 11 3 22 -7 4 -8 3 -4 -4 5 -8 2 -10 -8 -6 -17 6 -21 -5 -8 -22 4
-5 -1 -1 -10 9 -29 31 -20 8 12 -33 16 -20 27 -39 25 -42 -3 -3 10 -4 30 -3
24 2 33 -1 28 -9 -4 -6 2 -4 12 4 17 13 18 13 10 0 -7 -12 -6 -13 7 -3 8 7 18
10 21 6 4 -3 7 -1 7 6 0 7 -6 11 -13 8 -8 -3 -14 1 -14 9 0 9 8 12 24 10 15
-3 21 -1 17 6 -4 7 -2 8 4 4 26 -16 10 3 -24 29 -40 30 -57 26 -28 -7 l19 -22
-26 20 c-15 10 -25 22 -23 26 2 4 0 9 -5 13 -6 3 -8 12 -4 21 5 13 7 12 18 -2
6 -9 17 -14 22 -11 6 4 17 -1 24 -10 12 -14 12 -16 0 -8 -10 5 -12 4 -7 -3 10
-16 29 -15 23 1 -3 8 3 13 18 13 16 0 21 -5 18 -15 -3 -10 -2 -12 4 -6 5 7 17
1 33 -15 14 -14 21 -22 16 -17 -14 10 -26 9 -26 -4 0 -5 4 -8 9 -4 5 3 13 0
17 -6 4 -7 3 -9 -4 -5 -7 4 -10 -1 -7 -14 2 -11 -1 -20 -7 -20 -5 0 -8 7 -4
15 8 22 -2 18 -15 -6 -8 -15 -8 -19 0 -15 6 4 11 2 11 -3 0 -6 -5 -11 -11 -11
-5 0 -7 -5 -3 -11 5 -8 9 -8 14 1 5 8 10 9 14 2 3 -6 1 -13 -4 -15 -6 -3 -5
-4 2 -2 7 1 12 8 10 15 -2 11 1 10 15 0 28 -22 29 -24 11 -17 -10 3 -20 1 -24
-5 -5 -7 -2 -8 7 -3 11 7 11 5 -1 -10 -13 -17 -13 -18 0 -10 13 8 13 7 0 -10
-11 -14 -11 -17 -2 -11 22 13 -1 -24 -32 -53 -20 -19 -29 -22 -38 -13 -9 9 -7
17 8 34 11 13 12 18 3 10 -13 -9 -16 -9 -16 3 0 8 5 11 11 8 6 -4 4 2 -4 12
-13 17 -13 18 0 10 13 -8 13 -7 0 10 -8 10 -15 21 -15 24 0 3 -8 6 -17 6 -10
1 -14 -3 -11 -9 4 -6 -2 -4 -13 4 -18 14 -18 14 -4 -4 12 -16 12 -18 1 -11
-10 6 -12 4 -6 -5 6 -9 4 -11 -6 -4 -8 4 1 -11 20 -34 33 -42 33 -43 15 -65
-13 -15 -14 -18 -4 -12 11 7 11 5 -1 -6 -16 -15 -16 -16 3 -28 18 -11 18 -14
4 -24 -13 -10 -7 -12 33 -12 27 -1 47 3 45 7 -3 5 -2 8 3 7 20 -4 24 2 12 18
-12 15 -12 16 1 8 13 -8 13 -7 1 9 -12 15 -12 19 4 34 10 9 15 12 11 5 -10
-18 17 -10 50 15 20 15 23 20 9 16 l-20 -7 20 17 c11 10 15 15 9 12 -6 -3 -11
1 -11 9 0 8 5 11 11 8 6 -4 5 1 -3 10 -12 15 -11 20 3 36 15 17 15 19 -1 32
-17 13 -17 13 -3 -5 9 -12 10 -17 3 -12 -7 4 -18 16 -23 26 -8 16 -8 18 5 14
18 -7 20 7 3 24 -9 9 -9 12 0 12 7 0 12 -5 12 -11 0 -5 4 -8 9 -5 5 3 8 -2 7
-12 -1 -11 6 -16 19 -15 19 1 19 1 2 -12 -14 -10 -15 -14 -4 -18 8 -3 21 0 28
6 11 10 11 9 1 -4 -9 -12 -9 -18 0 -27 9 -9 9 -15 0 -24 -9 -9 -15 -9 -24 1
-11 10 -10 11 5 6 19 -8 24 10 5 21 -7 4 -8 3 -4 -4 5 -8 2 -10 -8 -6 -27 10
-17 -14 14 -36 18 -13 27 -26 23 -33 -3 -7 3 -4 14 6 16 14 23 15 29 6 5 -8 3
-10 -6 -4 -9 6 -11 4 -5 -5 5 -8 4 -11 -2 -7 -6 4 -17 -1 -24 -10 -12 -14 -12
-16 1 -9 8 4 7 1 -3 -7 -14 -11 -15 -16 -5 -20 10 -4 10 -6 -1 -6 -11 -1 -10
-5 5 -16 16 -13 16 -14 1 -9 -11 4 -16 2 -14 -7 2 -8 2 -11 0 -6 -3 4 -10 4
-15 1 -7 -5 -8 -2 -3 6 6 9 4 11 -6 5 -11 -7 -11 -5 1 10 12 15 12 17 1 10
-10 -6 -12 -4 -6 5 5 9 4 11 -4 6 -6 -4 -8 -13 -4 -19 4 -7 0 -7 -10 1 -14 12
-16 11 -12 -9 5 -26 -12 -52 -28 -42 -6 4 -7 1 -2 -7 6 -9 4 -11 -5 -5 -8 5
-11 4 -7 -2 3 -5 -4 -9 -16 -8 -12 1 -29 -3 -37 -9 -13 -10 -13 -9 0 9 14 19
14 19 -2 6 -10 -7 -18 -17 -18 -22 0 -9 42 -5 59 5 5 4 12 0 14 -6 4 -9 6 -9
6 -1 1 6 9 9 20 6 12 -3 20 2 24 16 3 12 11 21 19 20 10 0 10 -2 1 -6 -7 -2
-13 -9 -13 -15 0 -6 6 -6 15 2 8 7 12 16 9 21 -3 5 0 9 5 9 6 0 11 -5 11 -12
0 -6 11 2 24 17 14 16 23 32 20 36 -2 4 1 9 7 11 6 2 12 24 14 50 3 40 1 46
-13 41 -15 -6 -16 -5 -2 12 12 15 12 17 1 10 -11 -6 -13 -4 -8 7 4 11 -10 32
-41 62 -25 25 -50 46 -53 46 -4 0 -21 11 -38 26 -16 14 -31 24 -33 23 -2 -1
-25 9 -53 21 -27 13 -59 25 -70 26 -11 1 -33 4 -50 6 -16 2 -40 2 -52 0z m133
-24 c3 -4 -1 -5 -10 -4 -8 1 -18 5 -22 8 -3 4 1 5 10 4 8 -1 18 -5 22 -8z
m-50 -85 c-4 -24 -62 -24 -83 -1 -22 25 -8 36 17 13 16 -14 22 -15 35 -5 13
11 12 15 -8 32 -20 18 -19 18 10 -1 18 -12 30 -28 29 -38z m42 21 c2 -1 0 -4
-5 -7 -4 -3 -17 7 -27 22 l-20 26 25 -20 c13 -11 25 -21 27 -21z m87 26 c4 -6
10 -8 14 -5 5 2 16 -4 26 -15 10 -11 15 -20 10 -20 -4 0 -1 -8 6 -17 8 -10 9
-14 2 -10 -21 13 -23 -10 -3 -35 11 -14 16 -29 12 -32 -4 -4 -8 -20 -9 -34 -4
-60 -18 -88 -37 -73 -9 8 -17 6 -29 -7 -16 -18 -17 -37 -3 -60 4 -7 4 -12 -1
-11 -4 1 -10 0 -13 -1 -11 -5 -60 -7 -55 -2 3 3 -2 13 -10 22 -14 15 -14 18 0
30 8 7 12 17 8 24 -4 6 1 4 11 -4 17 -13 22 -10 57 27 25 27 37 48 34 61 -2
12 3 23 13 27 15 5 14 9 -8 25 -13 10 -29 16 -35 12 -5 -3 -4 2 4 11 7 9 10
17 6 17 -5 0 0 8 9 19 16 18 16 20 -10 40 -15 11 -22 21 -16 21 6 0 14 -5 17
-10z m169 -162 c-2 -43 -2 -42 -19 -28 -12 10 -13 16 -4 26 8 10 9 18 0 27
-13 17 -2 31 13 17 7 -5 11 -24 10 -42z m-248 -14 l0 -46 -23 29 -23 28 21 18
c12 9 22 17 23 17 1 0 2 -21 2 -46z m274 -56 c0 -4 -5 -8 -11 -8 -5 0 -8 -4
-4 -9 3 -5 1 -12 -5 -16 -6 -4 -7 -11 -4 -17 4 -6 2 -8 -4 -5 -9 6 -9 27 -2
47 1 3 2 8 2 11 -1 3 6 6 14 6 8 0 14 -4 14 -9z m-106 -103 c-32 -32 -45 -32
-15 -1 15 16 20 29 15 38 -6 11 -5 11 8 0 15 -12 14 -15 -8 -37z"/>
<path d="M3920 7836 c0 -2 8 -10 18 -17 15 -13 16 -12 3 4 -13 16 -21 21 -21
13z"/>
<path d="M3981 7827 c-8 -10 -7 -14 2 -14 8 0 14 6 14 14 0 7 -1 13 -2 13 -2
0 -8 -6 -14 -13z"/>
<path d="M4158 7849 c10 -13 10 -19 -2 -28 -19 -16 -14 -38 12 -57 19 -13 20
-18 9 -37 -8 -12 -13 -28 -13 -36 1 -21 -77 -98 -90 -89 -6 5 -16 2 -23 -5 -8
-11 -7 -17 7 -29 27 -22 47 -17 47 13 0 34 33 73 50 59 14 -12 26 -3 19 15 -3
7 -1 16 5 19 5 4 8 17 5 31 -2 13 0 27 6 30 6 4 3 16 -10 32 -11 14 -17 30
-13 37 13 20 11 35 -5 48 -15 11 -15 11 -4 -3z m-66 -264 c2 3 5 -1 5 -9 0
-15 -14 -16 -35 -3 -7 5 -10 13 -6 18 4 6 10 6 18 0 7 -6 15 -9 18 -6z"/>
<path d="M4285 7701 c-3 -5 -2 -12 3 -15 5 -3 9 1 9 9 0 17 -3 19 -12 6z"/>
<path d="M4025 7711 c-6 -11 13 -26 22 -17 4 3 0 6 -8 6 -11 0 -11 2 1 10 9 6
10 10 3 10 -6 0 -14 -4 -18 -9z"/>
<path d="M6644 7928 c-3 -5 -10 -6 -15 -2 -5 3 -15 1 -22 -4 -7 -5 -20 -8 -30
-7 -10 2 -14 -1 -10 -8 4 -6 0 -8 -10 -4 -16 6 -41 -15 -30 -26 3 -4 1 -7 -4
-7 -6 0 -14 6 -16 13 -4 10 -6 10 -6 0 -1 -7 -7 -13 -15 -13 -8 0 -21 -9 -29
-20 -8 -11 -17 -17 -20 -13 -4 3 -7 0 -7 -7 0 -7 -3 -11 -6 -7 -7 7 -36 -16
-81 -63 -34 -36 -40 -50 -22 -50 5 0 7 -5 4 -10 -4 -6 -11 -7 -17 -4 -6 4 -8
2 -4 -4 3 -6 2 -14 -4 -17 -8 -5 -8 -11 0 -20 7 -8 10 -18 7 -22 -3 -4 -1 -18
4 -30 6 -16 13 -21 26 -16 15 6 16 4 5 -9 -10 -13 -7 -19 21 -41 27 -20 37
-23 47 -14 10 10 12 9 7 -5 -4 -12 -1 -16 13 -13 11 2 22 -1 26 -6 4 -6 11 -6
20 2 8 6 14 7 14 2 0 -12 69 -11 88 0 7 5 12 4 12 -2 0 -13 36 -9 51 6 14 14
-8 13 -30 -1 -10 -7 -12 -6 -6 4 6 9 4 11 -5 5 -9 -6 -11 -4 -5 6 7 11 5 11
-11 -1 -18 -14 -18 -13 1 10 l20 25 -21 -18 c-11 -9 -24 -14 -27 -10 -4 3 -7
1 -7 -4 0 -6 6 -14 13 -16 9 -4 9 -6 -1 -6 -7 -1 -15 6 -18 14 -4 8 -10 12
-15 9 -5 -3 -7 -9 -5 -13 3 -4 -1 -8 -9 -8 -8 0 -12 4 -9 8 2 4 -1 11 -7 15
-8 5 -9 3 -4 -5 6 -10 3 -11 -14 -2 -16 9 -21 9 -21 0 0 -29 -16 9 -19 46 -1
6 -5 4 -10 -4 -5 -8 -16 -16 -25 -17 -12 -2 -14 2 -6 16 7 13 6 20 -6 24 -24
9 -29 7 -16 -6 7 -7 12 -17 12 -22 0 -6 -5 -4 -10 4 -6 10 -10 11 -10 3 0 -7
-5 -13 -11 -13 -6 0 -7 5 -2 13 4 6 8 18 10 26 1 7 7 19 14 25 9 8 10 8 4 -2
-6 -11 -3 -12 14 -3 25 14 28 23 4 15 -15 -5 -15 -4 -3 4 8 6 18 8 22 6 4 -3
8 -1 8 5 0 16 -18 22 -23 9 -3 -10 -8 -10 -18 1 -11 11 -11 13 0 6 9 -5 8 0
-3 17 -9 14 -13 27 -10 31 4 3 -3 5 -14 2 -12 -2 -25 1 -28 7 -5 7 -2 8 6 3 8
-5 11 -4 6 3 -4 7 1 10 14 7 13 -3 18 0 14 7 -5 7 -2 8 7 3 8 -5 6 1 -4 12
-10 12 -14 24 -9 27 5 3 18 -4 28 -17 19 -21 19 -21 -1 -7 -20 15 -20 14 -1
-8 21 -24 31 -29 21 -9 -4 6 0 4 8 -6 10 -12 17 -14 22 -8 3 6 1 11 -6 11 -7
0 -10 3 -6 6 3 4 18 -3 33 -15 15 -11 22 -21 17 -21 -5 0 -15 6 -23 13 -11 9
-11 8 0 -7 8 -11 10 -17 3 -13 -7 5 -10 1 -8 -10 1 -10 -3 -24 -9 -32 -9 -12
-8 -13 3 -6 10 6 12 4 6 -5 -6 -10 -4 -11 6 -4 8 4 20 9 27 10 11 2 11 0 0
-14 -8 -9 -8 -13 -1 -9 8 5 10 -2 8 -20 -2 -24 -1 -25 10 -10 6 9 15 14 18 10
8 -7 -34 -39 -45 -35 -5 1 -8 -2 -8 -8 0 -15 11 -12 34 8 16 13 18 13 11 2 -6
-10 -4 -9 6 2 9 9 19 14 23 11 3 -3 -2 -12 -12 -20 -13 -10 -14 -13 -2 -11 8
2 18 8 22 13 5 6 8 4 8 -5 0 -13 2 -13 11 0 9 12 10 11 5 -5 -5 -17 -3 -16 14
5 17 20 19 21 14 5 l-7 -20 17 20 c10 11 14 14 11 7 -6 -11 -3 -12 13 -3 12 6
24 17 28 24 6 8 3 8 -9 -1 -9 -8 -20 -11 -26 -8 -13 9 -8 61 8 80 22 26 5 30
-25 7 -22 -17 -30 -19 -42 -9 -11 9 -14 10 -9 1 5 -8 1 -11 -13 -8 -13 3 -18
0 -14 -7 5 -7 2 -8 -5 -3 -9 5 -10 10 -2 18 6 6 11 16 11 22 0 5 -4 4 -9 -4
-6 -9 -11 -10 -15 -2 -4 6 -3 11 2 11 5 0 9 7 9 15 0 8 -4 12 -9 9 -4 -3 -8 0
-8 6 0 7 7 10 15 6 22 -8 18 2 -6 15 -17 9 -20 8 -13 -3 6 -11 5 -11 -9 1 -9
7 -14 17 -11 22 3 5 0 9 -5 9 -16 0 -14 -11 6 -32 9 -10 14 -20 12 -22 -2 -2
-18 16 -36 39 -30 40 -28 52 5 31 19 -12 39 9 24 26 -5 7 -12 18 -14 23 -1 6
-7 9 -11 7 -5 -1 -6 2 -3 7 3 5 14 8 24 6 9 -1 25 2 36 7 14 8 17 7 10 -4 -7
-11 -5 -11 9 0 9 8 22 10 28 6 7 -4 9 -3 5 4 -3 6 -2 13 4 17 6 4 8 11 5 16
-3 5 0 6 8 3 8 -3 18 0 22 5 3 6 11 8 17 5 6 -4 14 0 19 7 6 9 9 10 9 2 0 -7
-8 -17 -17 -22 -10 -6 -13 -11 -7 -11 5 0 15 4 22 10 7 5 6 3 -1 -6 -12 -13
-30 -20 -60 -23 -5 -1 -5 -6 -1 -13 5 -7 3 -8 -6 -3 -9 5 -11 4 -6 -4 4 -6 12
-9 17 -6 5 4 9 1 9 -5 0 -7 -7 -10 -17 -6 -15 5 -15 4 1 -9 11 -8 15 -15 10
-15 -6 0 -14 3 -20 8 -5 4 5 -6 23 -21 18 -16 30 -33 27 -38 -3 -5 0 -9 5 -9
16 0 13 11 -6 34 -12 12 -4 9 20 -8 20 -16 37 -31 37 -33 0 -3 -8 1 -17 8 -14
11 -14 8 2 -11 11 -14 21 -27 23 -30 2 -3 2 4 0 14 -2 17 3 20 37 21 31 0 40
4 39 17 -1 11 5 15 17 13 10 -2 22 2 25 8 4 7 4 9 -1 5 -4 -4 -15 -2 -23 5
-13 10 -15 9 -8 -3 4 -8 0 -6 -10 5 l-17 20 7 -20 c6 -19 5 -19 -8 -2 -10 14
-15 15 -19 5 -4 -10 -6 -9 -6 2 -1 13 -2 13 -11 0 -9 -13 -10 -13 -10 0 0 13
-1 13 -10 0 -8 -13 -10 -13 -10 -1 0 11 -4 9 -14 -5 -14 -18 -16 -18 -30 -2
-9 10 -11 13 -4 8 20 -17 29 -11 23 17 -3 17 2 35 13 47 16 20 16 20 -3 6 -19
-14 -19 -14 -6 3 16 20 35 23 28 4 -6 -16 30 -20 39 -5 9 13 -25 40 -39 31 -6
-3 -7 -1 -3 5 4 6 14 8 23 5 10 -4 14 -2 11 8 -5 15 -76 21 -84 7z m50 -10
c-3 -4 -9 -8 -15 -8 -5 0 -9 4 -9 8 0 5 7 9 15 9 8 0 12 -4 9 -9z m-130 -35
c-9 -7 -21 -10 -26 -7 -14 9 -1 20 22 20 20 0 20 -1 4 -13z m104 0 c-8 -10
-14 -33 -13 -50 1 -24 -2 -30 -10 -23 -7 6 -15 6 -23 -2 -8 -8 -10 -6 -8 7 1
10 11 24 22 32 18 14 18 15 -3 8 -14 -4 -23 -2 -23 5 0 6 4 9 9 6 5 -3 20 3
32 14 30 24 37 25 17 3z m62 -4 c0 -14 -17 -10 -23 5 -4 10 -1 13 9 9 7 -3 14
-9 14 -14z m-253 -46 c-4 -3 -2 -12 5 -20 15 -18 2 -29 -17 -13 -8 7 -22 9
-31 6 -13 -5 -10 -13 17 -49 18 -23 24 -34 12 -24 -12 11 -26 16 -31 13 -5 -3
-20 6 -32 19 -22 23 -22 27 -4 24 4 0 10 4 13 9 3 5 20 16 36 25 33 18 42 21
32 10z m281 -56 c6 -5 12 -14 12 -20 0 -7 -4 -6 -10 3 -8 13 -10 13 -10 1 0
-11 -4 -9 -15 5 -13 16 -14 16 -9 1 5 -13 2 -16 -12 -14 -26 4 -45 17 -40 26
6 10 67 8 84 -2z m-397 -31 c-1 -3 -4 -6 -8 -7 -5 0 -15 -6 -23 -12 -8 -6 -6
-2 4 11 17 20 29 23 27 8z m142 -53 c-14 -5 -19 -25 -5 -20 4 1 9 -2 10 -8 7
-21 25 -35 36 -28 6 4 21 8 34 9 12 0 32 9 45 20 22 19 22 19 4 -2 -10 -13
-16 -32 -13 -52 2 -17 1 -31 -3 -30 -3 0 -8 -1 -11 -2 -24 -9 -42 -4 -61 16
-12 13 -25 21 -29 19 -4 -3 -7 5 -6 18 1 16 -4 22 -20 21 -13 -1 -21 4 -20 12
3 16 39 45 46 37 3 -3 -1 -8 -7 -10z m-133 -14 c0 -5 -1 -11 -2 -12 -2 -2 2
-10 9 -18 9 -11 7 -19 -8 -38 -10 -13 -19 -18 -19 -11 0 9 -4 9 -17 -1 -10 -8
-14 -9 -10 -2 4 6 3 15 -3 18 -8 5 -8 11 0 20 8 9 6 14 -6 19 -16 6 -16 8 0
25 17 18 56 18 56 0z m35 -141 c5 4 5 1 1 -6 -6 -10 -11 -10 -22 -1 -8 6 -14
14 -14 16 0 3 6 0 13 -6 8 -6 18 -7 22 -3z m32 -10 c2 -17 0 -19 -7 -8 -5 8
-6 18 -4 22 8 12 10 10 11 -14z"/>
<path d="M6626 7832 c-3 -5 1 -9 9 -9 8 0 12 4 9 9 -3 4 -7 8 -9 8 -2 0 -6 -4
-9 -8z"/>
<path d="M6405 7769 c10 -10 22 -16 27 -13 12 8 -6 27 -28 30 -14 2 -14 0 1
-17z"/>
<path d="M6684 7772 c4 -3 14 -7 22 -8 9 -1 13 0 10 4 -4 3 -14 7 -22 8 -9 1
-13 0 -10 -4z"/>
<path d="M6533 7613 c27 -30 50 -38 54 -19 1 5 7 13 15 17 10 7 10 9 0 9 -7 0
-11 4 -8 8 6 11 -40 9 -50 -1 -4 -4 -14 -1 -23 5 -9 7 -3 -2 12 -19z m53 -5
c2 -16 -12 -18 -34 -5 -7 5 -10 12 -7 17 8 13 38 5 41 -12z"/>
<path d="M6556 7608 c3 -5 10 -6 15 -3 13 9 11 12 -6 12 -8 0 -12 -4 -9 -9z"/>
<path d="M6323 7675 c-10 -10 -9 -14 4 -19 12 -5 13 -9 3 -21 -7 -8 -10 -16
-6 -16 24 -5 32 -4 44 4 8 6 9 14 3 21 -5 6 -10 14 -10 19 -1 4 -4 7 -7 6 -4
0 -10 4 -13 9 -4 6 -11 5 -18 -3z m32 -13 c-3 -3 0 -11 6 -19 6 -7 10 -13 8
-14 -36 -7 -40 -7 -30 5 7 8 7 16 0 23 -6 6 -5 10 6 10 8 0 13 -3 10 -5z"/>
<path d="M3836 7915 c-10 -9 -46 -15 -98 -16 -10 0 -18 -8 -18 -17 0 -15 -2
-15 -10 -2 -9 13 -10 13 -10 0 0 -13 -1 -13 -10 0 -7 11 -10 11 -10 2 0 -7 -5
-10 -12 -6 -7 4 -8 3 -4 -4 4 -7 -3 -10 -23 -7 -16 2 -39 -4 -52 -13 -13 -9
-33 -18 -43 -19 -11 -2 -25 -8 -31 -13 -7 -5 -14 -7 -18 -4 -3 3 -11 -3 -18
-14 -7 -11 -19 -18 -26 -15 -7 3 -13 0 -13 -7 0 -6 -5 -8 -10 -5 -6 3 -13 -1
-16 -9 -3 -9 -9 -14 -13 -12 -4 3 -13 1 -21 -5 -11 -6 -11 -9 -2 -9 10 0 10
-5 1 -21 -8 -16 -8 -20 0 -14 7 4 10 1 9 -7 -2 -7 3 -12 10 -10 6 1 12 -2 12
-8 0 -13 -17 -13 -25 0 -4 6 -10 8 -15 5 -5 -3 -12 0 -16 6 -4 7 -3 9 2 6 6
-3 11 4 11 15 3 29 -16 8 -23 -25 -3 -22 -1 -25 13 -20 15 6 16 4 5 -9 -17
-21 7 -44 27 -25 11 10 11 8 2 -10 -10 -19 -8 -24 11 -35 13 -7 29 -11 36 -10
7 2 11 -3 10 -10 -2 -7 3 -12 10 -10 6 1 12 -3 12 -9 0 -6 6 -9 14 -6 8 3 16
1 18 -4 2 -6 12 -12 23 -14 11 -2 20 -4 20 -5 0 -4 80 -11 140 -13 33 0 63 -6
67 -12 5 -6 8 -5 8 4 0 10 3 11 13 2 8 -6 17 -8 21 -4 10 10 36 13 36 4 0 -4
7 -8 15 -8 8 0 12 4 9 9 -3 4 0 8 5 8 6 0 11 -5 11 -11 0 -8 4 -9 13 0 8 6 17
8 21 4 4 -5 47 -8 95 -9 70 0 90 3 98 15 9 14 4 16 -28 17 -22 1 -39 -3 -39
-8 0 -5 4 -7 9 -3 5 3 12 1 15 -4 4 -5 -2 -8 -11 -6 -10 2 -21 4 -25 4 -8 1
-5 22 6 39 5 8 2 18 -9 26 -15 11 -15 14 5 39 l22 27 -31 39 c-17 21 -27 41
-23 45 4 4 7 13 7 19 0 7 12 11 28 10 15 -1 27 2 27 8 0 6 -4 8 -9 4 -5 -3
-12 -1 -15 4 -4 5 2 8 11 6 10 -2 22 -4 26 -4 5 -1 6 -5 2 -10 -3 -5 -1 -12 5
-16 6 -4 8 -10 5 -15 -3 -5 -1 -11 5 -15 6 -4 8 -10 5 -15 -3 -5 0 -12 5 -15
8 -5 6 -13 -6 -26 -26 -28 -8 -36 21 -9 28 26 33 45 11 37 -10 -4 -13 -1 -9 8
3 8 9 12 14 9 19 -11 3 21 -18 38 -21 18 -24 46 -6 72 13 17 9 51 -5 51 -7 0
-16 6 -21 13 -7 11 -9 11 -14 -2 -4 -9 2 -21 14 -29 19 -14 19 -15 2 -22 -10
-5 -21 -8 -24 -7 -4 1 -6 -6 -5 -16 0 -9 -3 -17 -9 -17 -5 0 -14 -3 -20 -6
-10 -5 -26 -5 -42 1 -5 2 -17 3 -28 4 -11 1 -20 3 -20 6 0 3 -15 25 -34 48
-31 39 -34 57 -10 57 5 0 9 3 9 8 0 4 0 11 0 16 0 13 -40 10 -54 -4z m51 -10
c4 -4 3 -5 -3 -2 -7 4 -17 0 -24 -8 -10 -13 -9 -19 5 -35 10 -11 15 -20 10
-20 -4 0 3 -9 16 -20 13 -10 20 -19 15 -20 -5 0 -3 -6 3 -14 7 -8 23 -13 36
-10 13 2 27 0 30 -6 4 -6 12 -7 18 -3 7 4 6 0 -2 -10 -7 -9 -10 -17 -5 -17 4
0 3 -5 -4 -12 -9 -9 -8 -16 5 -30 9 -10 13 -18 8 -18 -4 0 3 -9 16 -20 l24
-20 -23 -19 c-26 -23 -27 -29 -5 -53 14 -16 14 -18 -1 -24 -14 -5 -15 -9 -4
-15 10 -7 10 -9 -2 -9 -12 0 -12 -2 -2 -8 7 -5 -8 -8 -37 -8 -38 1 -54 6 -66
21 -12 16 -14 17 -9 3 7 -21 -6 -24 -24 -6 -9 9 -12 9 -12 0 0 -8 -10 -11 -25
-8 -13 3 -27 0 -31 -5 -3 -6 -10 -6 -17 -1 -7 5 -20 8 -29 7 -10 -2 -18 1 -18
6 0 6 -6 7 -12 2 -20 -12 -41 -13 -55 -1 -9 7 -13 7 -13 -1 0 -7 -5 -9 -12 -4
-7 4 -30 8 -50 9 -21 1 -40 2 -43 3 -3 0 -8 1 -12 2 -5 0 -16 8 -25 16 -10 9
-18 13 -18 8 0 -4 -6 -2 -13 4 -8 6 -17 7 -21 3 -4 -4 -6 0 -4 8 2 8 -4 15
-12 15 -17 1 -60 24 -45 25 13 0 17 40 5 40 -5 0 -12 -5 -15 -10 -4 -6 -11 -8
-16 -4 -6 4 -6 10 0 18 6 7 7 17 3 22 -4 4 1 2 11 -5 13 -10 21 -11 29 -3 11
11 2 36 -11 28 -4 -3 -7 8 -7 24 0 16 3 27 7 24 4 -2 12 4 18 13 6 10 11 13
11 8 0 -6 -5 -16 -11 -22 -7 -7 -6 -12 5 -16 9 -4 15 -3 15 1 -1 4 0 10 1 15
1 4 3 13 4 20 0 6 7 12 14 12 8 0 21 9 29 20 12 16 14 16 10 3 -3 -10 -2 -20
3 -23 6 -4 10 -1 10 5 0 6 5 8 11 4 8 -4 7 -9 -2 -15 -16 -10 -8 -12 15 -3 12
5 13 9 4 24 -7 10 -17 16 -23 13 -5 -4 -7 -3 -3 1 3 4 8 6 11 4 2 -1 11 3 20
11 10 7 17 10 17 6 0 -5 8 -1 19 9 22 20 58 28 67 15 4 -7 12 -5 22 4 10 8 25
13 35 12 10 -2 21 3 24 11 4 11 8 10 22 -4 9 -10 12 -12 7 -4 -13 18 7 30 45
27 16 -1 33 3 39 10 12 14 35 14 47 0z m202 -88 c-9 -7 -15 -20 -13 -30 1 -9
-1 -15 -6 -12 -12 8 -6 35 11 46 21 13 27 10 8 -4z m17 -94 c-7 -7 -21 -4 -21
5 0 4 -4 14 -9 22 -6 9 -1 7 12 -4 12 -11 20 -21 18 -23z m14 -46 c0 -2 -10
-12 -22 -23 l-23 -19 19 23 c18 21 26 27 26 19z m-30 -163 c0 -8 -19 -13 -24
-6 -3 5 1 9 9 9 8 0 15 -2 15 -3z"/>
<path d="M3837 7889 c-10 -14 -16 -16 -19 -8 -3 9 -7 7 -11 -5 -4 -9 -3 -15 3
-11 5 3 7 -4 5 -15 -3 -14 0 -18 8 -13 7 4 6 0 -2 -10 -10 -13 -17 -15 -27 -6
-8 6 -11 16 -7 23 4 6 8 20 10 31 1 11 -1 14 -3 8 -3 -7 -10 -13 -15 -13 -6 0
-7 5 -3 12 5 7 3 8 -5 3 -9 -5 -9 -11 -3 -17 12 -12 5 -38 -10 -38 -5 0 -7 4
-4 9 3 5 -1 14 -8 20 -9 7 -17 8 -20 2 -3 -5 -14 -8 -24 -6 -9 1 -24 -4 -34
-12 -10 -9 -18 -11 -22 -4 -9 13 -45 5 -67 -15 -11 -10 -19 -13 -19 -9 0 5 -5
4 -12 -3 -8 -8 -8 -15 0 -24 23 -29 -20 -49 -48 -23 -12 11 -20 13 -25 5 -3
-5 -11 -7 -17 -4 -6 4 -8 2 -4 -4 3 -6 2 -13 -3 -17 -6 -3 -8 -12 -5 -20 4 -9
-1 -13 -15 -12 -12 1 -21 6 -21 11 0 5 -3 6 -7 3 -3 -4 2 -16 12 -27 14 -16
15 -22 5 -35 -7 -8 -11 -15 -9 -16 33 -6 38 -6 33 3 -5 7 -2 8 7 3 11 -7 11
-5 -1 10 -13 17 -13 18 0 11 8 -4 6 0 -4 8 -11 9 -15 16 -10 16 6 0 15 -5 22
-12 8 -8 10 -4 6 18 -3 23 -2 26 7 14 9 -13 10 -13 5 2 -3 10 0 20 6 24 6 4 8
3 4 -4 -4 -7 3 -9 21 -6 22 4 25 2 13 -7 -12 -9 -12 -10 5 -5 l20 6 -20 -16
c-14 -12 -15 -15 -4 -11 11 4 16 0 15 -14 -1 -11 -3 -18 -6 -17 -3 2 -24 -11
-45 -28 -41 -31 -85 -58 -52 -31 18 15 10 32 -9 19 -14 -10 -10 -37 5 -34 8 2
24 -7 37 -19 13 -12 24 -19 24 -14 0 4 9 0 21 -11 12 -10 23 -18 25 -16 2 1 5
1 7 1 1 -1 27 -2 57 -3 30 -1 60 -5 66 -8 12 -8 40 -5 50 5 4 3 15 2 25 -4 11
-5 19 -7 19 -3 0 3 6 1 14 -5 9 -8 16 -8 20 -2 4 5 15 8 26 6 11 -2 22 1 26 6
3 6 12 5 22 -3 10 -8 13 -9 9 -1 -13 20 11 24 25 4 14 -20 32 -22 56 -8 7 5
12 3 12 -3 0 -6 5 -8 11 -4 8 4 7 9 -2 15 -11 7 -9 10 9 15 20 6 21 9 9 23
-18 21 -16 37 7 54 19 14 14 43 -5 32 -5 -4 -9 -1 -9 4 0 22 -2 26 -16 43 -9
9 -11 18 -6 22 20 12 6 41 -20 41 -27 0 -61 22 -53 36 3 4 -4 13 -16 19 -11 7
-18 14 -15 17 3 4 -1 15 -10 25 -14 14 -14 20 -4 33 7 8 10 15 7 15 -3 0 -12
-9 -20 -21z m18 -47 c0 -4 14 -26 30 -49 23 -32 35 -41 53 -38 12 2 20 0 17
-6 -4 -5 0 -9 7 -9 10 0 9 -3 -1 -9 -13 -8 -13 -12 -1 -26 16 -19 23 -48 10
-40 -5 3 -11 1 -15 -5 -6 -10 3 -13 38 -13 17 0 17 -1 -2 -21 -22 -23 -24 -35
-10 -52 6 -7 0 -19 -17 -35 -14 -13 -27 -24 -29 -24 -2 0 -15 10 -28 23 -16
15 -27 20 -32 13 -3 -6 -10 -9 -15 -6 -5 3 -11 1 -15 -4 -3 -5 -14 -8 -25 -6
-11 2 -22 0 -25 -6 -4 -5 -15 -3 -28 4 -19 12 -40 15 -49 7 -9 -6 -43 -8 -52
-2 -6 3 -36 7 -66 8 -30 1 -56 2 -57 3 -2 0 -5 0 -7 -1 -2 -2 -13 5 -23 15
-11 9 -22 15 -25 12 -3 -3 -12 3 -22 14 -16 17 -15 20 19 45 19 15 35 24 35
20 0 -3 6 -1 14 5 15 13 16 57 2 79 -4 7 -4 12 1 11 30 -5 38 10 19 39 -4 7
-5 16 -2 19 3 4 6 1 6 -6 0 -8 8 -4 18 8 19 24 58 35 68 20 4 -6 11 -5 21 3
20 16 50 21 34 5 -18 -18 -13 -28 8 -15 11 7 19 14 18 17 -1 4 3 7 8 9 6 1 10
-4 10 -10 0 -7 8 -13 18 -13 10 0 24 -7 30 -16 11 -15 14 -14 30 7 11 14 13
25 7 29 -6 4 -7 11 -4 17 6 10 29 -5 29 -20z m-354 -89 c11 -15 11 -16 -1 -6
-11 10 -18 9 -34 -5 -21 -17 -21 -17 -2 6 23 26 20 26 37 5z"/>
<path d="M3670 7825 c-8 -9 -17 -12 -24 -6 -13 10 -45 6 -59 -8 -5 -5 -11 -22
-11 -36 -1 -14 -8 -30 -16 -35 -10 -7 -11 -10 -2 -10 6 0 12 -5 12 -11 0 -5
-4 -8 -9 -5 -5 4 -8 -2 -6 -11 1 -10 8 -17 14 -15 6 1 11 -2 11 -8 0 -5 -6
-10 -14 -10 -7 0 -19 -7 -26 -15 -6 -8 -15 -14 -18 -12 -4 1 -19 -7 -35 -17
-22 -15 -25 -21 -16 -33 7 -7 14 -11 17 -8 3 3 14 -3 25 -12 10 -10 21 -17 23
-15 2 1 5 1 7 1 1 -1 27 -2 57 -3 30 -1 60 -5 66 -8 16 -10 44 -3 55 13 7 12
9 12 9 0 0 -8 8 -3 20 12 23 28 25 37 9 37 -5 0 -8 -4 -5 -9 3 -5 -2 -15 -11
-22 -14 -12 -16 -12 -8 0 5 9 4 12 -3 7 -7 -4 -10 1 -7 14 2 11 -2 20 -8 20
-9 0 -9 2 -1 8 8 5 3 14 -15 27 -26 19 -26 19 -11 0 14 -19 14 -19 -5 -4 -32
26 -49 34 -40 19 5 -8 4 -11 -3 -6 -6 3 -9 16 -7 27 4 18 2 19 -13 7 -15 -12
-16 -11 -3 4 7 10 17 15 22 12 5 -3 9 0 9 5 0 16 -11 14 -32 -6 -14 -13 -21
-14 -30 -5 -9 9 -9 15 1 25 10 10 11 9 6 -5 -8 -19 9 -25 20 -8 3 5 15 15 27
21 16 9 19 8 12 -3 -6 -9 -2 -9 12 2 18 14 18 14 4 -5 l-15 -20 24 20 c15 12
21 14 16 5 -8 -13 -7 -13 11 0 18 14 18 14 4 -4 -12 -16 -12 -18 -1 -11 10 6
12 4 6 -6 -7 -11 -6 -12 6 -3 8 6 22 10 32 9 10 -2 14 1 11 7 -5 7 -2 8 6 3 8
-5 11 -4 7 1 -11 18 11 38 45 40 18 1 27 0 21 -3 -7 -3 -13 -9 -13 -14 0 -6 4
-8 9 -4 5 3 19 -7 30 -21 12 -15 21 -23 21 -17 0 5 9 9 20 10 11 1 20 -3 20
-8 0 -6 -4 -8 -8 -5 -12 7 -53 -24 -46 -35 3 -5 13 -1 22 9 9 10 16 16 15 13
-2 -2 2 -10 8 -18 8 -8 8 -13 1 -13 -6 0 -9 -11 -8 -25 2 -13 -1 -22 -6 -19
-5 3 -7 13 -3 23 5 12 4 13 -6 4 -10 -10 -9 -16 2 -30 13 -17 13 -17 -4 -4
-10 8 -15 21 -12 30 5 13 4 13 -6 4 -10 -10 -9 -17 6 -33 17 -19 18 -22 2 -37
-12 -12 -17 -13 -17 -5 0 7 -4 11 -10 7 -5 -3 -7 -12 -3 -21 4 -10 9 -12 18
-4 8 7 17 4 29 -9 19 -21 36 -22 60 -2 13 11 14 16 4 29 -14 17 -14 18 10 47
9 11 13 17 8 13 -5 -4 -17 -3 -28 3 -18 10 -18 12 -4 28 15 16 15 19 1 31 -8
7 -14 20 -13 29 2 10 -3 15 -13 13 -9 -1 -30 18 -49 44 l-33 47 -23 -28 -22
-28 -11 22 c-7 12 -16 19 -22 15 -5 -3 -16 -1 -23 5 -9 8 -18 7 -31 -3 -25
-18 -51 -10 -34 10 6 8 9 14 6 14 -2 0 -10 -7 -17 -15z m-19 -26 c7 -12 9 -12
9 1 0 9 3 11 8 5 9 -13 21 -13 48 3 18 9 24 9 35 -4 8 -10 14 -12 19 -4 5 8 9
7 13 -3 3 -8 -5 -25 -16 -38 -24 -26 -48 -36 -44 -17 4 20 -72 17 -99 -4 -19
-16 -23 -16 -18 -4 7 19 -7 21 -25 4 -11 -11 -12 -10 -5 2 5 8 9 26 10 38 2
39 45 53 65 21z m199 6 c-1 -4 7 -14 17 -23 10 -9 24 -25 31 -34 11 -14 11
-16 -1 -14 -21 3 -47 26 -44 39 1 7 -6 11 -15 11 -14 -1 -16 2 -7 18 10 18 23
20 19 3z m-227 -120 c4 3 5 2 2 -2 -8 -10 15 -32 29 -27 7 3 19 -2 26 -10 7
-9 16 -14 19 -11 4 2 8 -1 9 -8 0 -7 3 -21 5 -33 8 -32 -6 -47 -22 -23 -7 12
-8 18 -3 15 6 -3 9 2 7 11 -2 10 -4 22 -4 26 -1 5 -6 5 -12 1 -8 -5 -8 -9 1
-14 9 -5 9 -9 1 -14 -6 -4 -11 -2 -11 5 0 7 -3 9 -7 6 -3 -4 2 -16 12 -27 20
-22 14 -40 -8 -22 -8 7 -17 9 -20 5 -4 -3 -9 2 -13 11 -3 9 -10 13 -15 10 -5
-3 -6 -11 -2 -17 4 -7 -6 -4 -21 7 -23 15 -28 15 -23 3 5 -13 -5 -16 -30 -8
-2 1 -5 0 -6 -1 -8 -6 -36 25 -31 33 3 5 0 9 -5 9 -6 0 -11 -5 -11 -11 0 -5
-5 -7 -11 -4 -6 5 -2 13 13 23 13 9 24 14 24 12 1 -3 11 3 21 13 11 9 22 15
25 12 3 -3 11 1 17 9 14 17 5 40 -11 30 -7 -4 -8 -2 -4 4 5 9 13 8 30 -3 12
-8 26 -13 29 -10z m326 11 c9 -10 7 -17 -6 -27 -9 -8 -14 -9 -10 -2 4 6 3 14
-3 18 -6 4 -8 11 -5 16 8 12 10 12 24 -5z m5 -61 c11 -8 14 -15 8 -15 -12 0
-12 -26 1 -47 7 -12 -7 -26 -30 -29 -6 -1 -19 6 -27 15 -14 16 -14 19 4 39 11
11 17 28 14 36 -8 20 5 20 30 1z"/>
<path d="M3604 7796 c-8 -8 -7 -14 5 -24 14 -11 14 -11 -4 -6 -19 5 -19 5 -1
-6 10 -7 21 -8 25 -4 9 13 95 13 103 0 5 -7 15 -3 30 13 13 13 18 21 12 17 -7
-3 -17 1 -24 9 -10 12 -16 12 -34 3 -31 -18 -65 -17 -76 1 -8 14 -9 14 -10 1
0 -10 -3 -11 -8 -4 -5 8 -10 8 -18 0z m150 -28 c-3 -5 -11 -4 -19 2 -8 7 -20
9 -27 5 -7 -4 -4 1 6 9 14 12 23 13 33 5 7 -6 10 -15 7 -21z m-108 10 c3 -4
-1 -5 -10 -4 -8 1 -18 5 -22 8 -3 4 1 5 10 4 8 -1 18 -5 22 -8z"/>
<path d="M3860 7766 c0 -2 8 -10 18 -17 15 -13 16 -12 3 4 -13 16 -21 21 -21
13z"/>
<path d="M3586 7661 c-10 -11 -22 -18 -26 -16 -4 3 -13 -2 -20 -10 -7 -8 -16
-12 -21 -9 -5 3 -9 0 -9 -5 0 -6 5 -11 10 -11 6 0 10 -5 10 -11 0 -5 -6 -7
-12 -3 -8 4 -10 3 -5 -2 5 -5 12 -9 15 -9 4 0 13 -4 21 -9 9 -6 12 -5 8 1 -10
15 18 24 32 10 8 -8 14 -8 22 0 14 14 41 5 32 -11 -3 -6 -3 -8 2 -4 4 4 15 2
24 -4 10 -8 9 -4 -3 10 -18 21 -18 23 -3 40 16 18 14 32 -6 32 -5 0 -6 -8 -3
-17 4 -10 -6 -3 -21 15 l-28 34 -19 -21z m59 -49 c-2 -2 -7 -4 -12 -4 -4 0
-13 -4 -20 -10 -7 -5 -18 -6 -25 -2 -21 13 -38 13 -38 1 0 -7 -4 -6 -10 3 -9
15 6 44 20 35 4 -2 16 5 26 16 l19 21 22 -28 c12 -16 20 -30 18 -32z"/>
<path d="M3585 7640 c-10 -11 -21 -17 -26 -15 -4 3 -10 1 -13 -4 -4 -5 2 -8
11 -6 10 1 24 -2 31 -8 8 -6 16 -6 25 2 8 6 17 7 22 3 4 -4 0 5 -10 21 -9 15
-18 27 -20 27 -1 0 -10 -9 -20 -20z m25 -24 c-15 -15 -33 4 -19 20 10 12 14
12 20 2 5 -7 4 -17 -1 -22z"/>
<path d="M3916 7591 c-23 -25 -3 -41 40 -32 4 0 1 7 -5 14 -6 8 -8 16 -5 19 3
3 1 9 -4 12 -5 3 -17 -3 -26 -13z m21 2 c-4 -3 -2 -12 4 -19 10 -12 7 -12 -30
-5 -5 1 20 31 27 31 3 0 2 -3 -1 -7z"/>
<path d="M3789 7758 c-3 -19 -5 -24 -12 -35 -4 -6 -15 -10 -25 -8 -9 1 -22 -2
-28 -6 -7 -6 -16 -4 -24 6 -10 12 -15 12 -36 -1 -13 -9 -21 -20 -18 -25 3 -5
15 -2 28 6 19 13 23 13 23 1 0 -8 -6 -12 -14 -9 -7 3 -13 0 -13 -6 0 -6 3 -10
8 -9 17 5 60 -34 57 -52 -2 -11 1 -23 7 -26 6 -4 8 -2 4 4 -9 15 13 27 27 13
7 -7 5 -16 -8 -31 -18 -20 -18 -21 1 -34 10 -8 23 -11 29 -8 5 4 19 7 30 7 11
0 20 7 20 15 1 24 15 40 30 33 20 -7 19 6 -1 29 -13 14 -14 21 -5 32 9 10 9
16 1 21 -8 5 -8 11 -1 19 12 15 -15 60 -30 51 -5 -4 -12 0 -15 8 -5 15 -33 19
-35 5z m21 -17 c0 -6 9 -8 20 -6 23 4 47 -29 30 -40 -8 -5 -8 -11 -1 -19 7 -9
7 -16 -1 -24 -9 -9 -7 -17 8 -34 10 -13 15 -20 10 -15 -14 11 -45 -22 -39 -41
4 -15 3 -15 -6 -2 -9 13 -11 13 -11 1 0 -11 -4 -9 -15 5 -11 14 -14 15 -9 3 7
-22 -11 -33 -25 -15 -9 11 -8 17 7 28 20 13 19 14 -4 41 -13 16 -24 25 -24 22
0 -13 -44 25 -46 40 -1 8 2 13 6 10 5 -3 11 -1 14 4 4 5 14 8 24 6 20 -3 54
24 46 36 -3 5 0 9 5 9 6 0 11 -4 11 -9z"/>
<path d="M3784 7709 c-8 -9 -24 -16 -34 -14 -27 5 -46 -20 -23 -30 10 -5 21
-9 24 -9 8 -1 56 -59 58 -68 0 -5 1 -11 1 -15 0 -3 11 4 25 17 19 18 22 26 14
37 -9 9 -8 17 0 27 9 10 9 16 1 21 -7 5 -8 11 -1 19 25 30 -38 45 -65 15z m61
2 c6 -1 3 -6 -5 -11 -12 -7 -12 -12 -3 -21 9 -9 10 -16 2 -26 -8 -9 -8 -17 0
-26 8 -11 6 -18 -10 -33 -11 -10 -19 -14 -17 -9 4 14 -51 85 -64 82 -6 -1 -13
5 -15 13 -4 12 -3 12 5 2 14 -20 18 -19 41 10 12 15 29 25 39 23 9 -2 22 -4
27 -4z"/>
<path d="M3786 7688 c-16 -22 -15 -25 22 -70 8 -10 19 -15 24 -12 5 3 4 12 -3
20 -8 10 -8 18 -1 27 7 8 5 19 -8 35 l-19 22 -15 -22z m33 -11 c8 -10 7 -17
-1 -25 -7 -7 -8 -16 -2 -25 5 -7 -1 -2 -13 12 -11 13 -19 30 -16 38 7 17 18
17 32 0z"/>
<path d="M3796 7671 c-4 -5 -2 -12 3 -15 5 -4 12 -2 15 3 4 5 2 12 -3 15 -5 4
-12 2 -15 -3z"/>
<path d="M3775 7560 c3 -5 8 -10 11 -10 2 0 4 5 4 10 0 6 -5 10 -11 10 -5 0
-7 -4 -4 -10z"/>
<path d="M3896 7673 c-6 -14 -5 -15 5 -6 7 7 10 15 7 18 -3 3 -9 -2 -12 -12z"/>
<path d="M3795 7841 c-3 -5 -2 -12 3 -15 5 -3 9 1 9 9 0 17 -3 19 -12 6z"/>
<path d="M3484 7712 c-4 -9 -8 -20 -9 -24 -2 -5 -4 -10 -5 -13 -1 -3 -3 -8 -4
-12 -1 -5 -6 -15 -11 -23 -5 -8 7 -3 27 12 19 15 38 24 42 21 3 -4 6 -2 6 4 0
6 -7 14 -16 17 -8 3 -13 10 -9 15 3 5 1 12 -4 15 -5 3 -12 -2 -17 -12z m15
-38 c-6 -8 -17 -14 -23 -14 -6 0 -5 4 3 9 7 5 11 14 7 20 -5 7 -1 9 9 5 12 -5
13 -9 4 -20z"/>
<path d="M6737 7916 c-3 -7 0 -19 6 -25 16 -16 -7 -36 -40 -36 -15 0 -28 -6
-30 -12 -3 -7 0 -13 7 -13 6 0 9 4 6 8 -3 5 2 9 10 9 10 0 11 -4 4 -11 -18
-18 -11 -22 28 -21 20 1 46 -3 57 -9 11 -6 23 -10 27 -11 16 0 17 -13 3 -25
-8 -7 -15 -9 -15 -4 0 5 -7 -1 -15 -12 -10 -15 -24 -21 -49 -19 -19 1 -33 -2
-30 -7 3 -4 2 -13 -2 -19 -4 -8 -13 -4 -25 12 -10 13 -26 24 -36 24 -10 0 -17
5 -16 12 1 6 -13 23 -33 38 -27 21 -32 30 -24 40 14 17 -7 32 -23 16 -8 -8 -8
-14 1 -23 9 -9 9 -15 -1 -27 -10 -12 -9 -13 1 -7 8 5 11 3 10 -6 -2 -9 7 -12
27 -11 21 2 26 0 16 -7 -12 -6 -12 -12 -3 -23 7 -7 9 -16 7 -19 -3 -3 -8 -16
-10 -28 -5 -28 -11 -34 -20 -21 -3 6 -1 11 5 11 6 0 8 5 5 10 -5 8 -11 8 -19
1 -9 -8 -13 -7 -13 4 0 8 4 12 9 9 4 -3 8 0 8 5 0 6 -6 11 -12 11 -7 0 -5 5 5
11 9 5 17 15 17 20 0 6 -6 7 -12 2 -19 -11 -38 -12 -38 -2 0 6 -4 8 -9 4 -5
-3 -13 0 -17 6 -5 8 -3 9 6 4 9 -6 11 -4 5 6 -6 11 -5 12 6 2 20 -20 34 -15
17 5 -9 9 -14 27 -12 39 3 16 -1 21 -15 20 -19 -1 -22 -12 -8 -34 5 -7 5 -19
0 -25 -10 -18 -13 -39 -4 -33 4 2 18 -3 30 -11 17 -12 19 -19 11 -29 -8 -10
-8 -15 0 -20 6 -4 9 -14 5 -22 -4 -12 -2 -13 8 -5 9 8 17 8 24 1 6 -6 19 -2
37 12 20 16 30 19 38 11 8 -8 7 -16 -2 -28 -16 -18 -23 -74 -10 -74 5 0 12 5
15 10 4 6 11 8 16 4 13 -8 -7 -31 -44 -50 -31 -17 -29 -29 6 -29 14 0 21 -6
19 -16 -1 -11 6 -16 28 -16 16 0 30 4 30 9 0 4 5 8 11 8 5 0 8 -4 5 -8 -2 -4
13 -8 34 -7 21 0 36 3 33 8 -2 4 1 7 6 7 6 0 11 -6 11 -12 0 -8 3 -9 8 -3 11
15 32 17 32 3 0 -10 2 -10 9 0 4 8 12 14 16 14 4 0 12 -6 16 -14 7 -10 9 -10
9 0 0 9 5 10 19 2 13 -7 22 -7 26 0 3 6 21 8 38 5 20 -3 27 -2 19 3 -11 8 -11
10 2 15 9 4 16 2 16 -3 0 -6 7 -10 15 -10 8 0 15 5 15 10 0 6 -5 9 -12 8 -7
-2 -13 3 -14 10 -1 6 -2 17 -3 23 0 5 -5 8 -11 4 -5 -3 -7 -12 -3 -20 3 -8 -1
-15 -8 -15 -7 0 -9 3 -6 7 9 8 -22 43 -37 43 -6 0 -5 -4 3 -9 21 -14 23 -41 3
-34 -15 4 -15 3 -2 -7 13 -10 12 -11 -5 -5 -11 4 -26 8 -33 9 -7 1 -18 8 -24
14 -7 7 -16 12 -22 12 -5 0 -1 -7 10 -16 10 -8 13 -12 5 -8 -9 4 -12 3 -7 -4
3 -6 -1 -9 -11 -7 -10 1 -24 -3 -32 -9 -12 -9 -13 -8 -6 3 6 10 4 12 -5 6 -9
-6 -11 -4 -5 6 6 11 5 12 -6 2 -7 -7 -17 -13 -23 -13 -5 0 -1 7 10 16 10 8 13
13 7 9 -9 -4 -11 -1 -7 9 7 19 -7 21 -26 4 -12 -11 -12 -10 0 5 7 10 19 16 25
13 7 -2 18 0 24 5 8 6 8 5 1 -3 -17 -21 -11 -31 8 -11 9 10 13 12 7 3 -7 -12
-7 -13 5 -3 14 13 23 56 10 48 -4 -2 -16 2 -26 10 -18 14 -18 15 6 35 15 12
18 18 8 14 -11 -4 -18 -1 -18 6 0 6 4 9 9 5 5 -3 12 -1 16 5 4 6 11 7 17 4 6
-4 8 -3 5 2 -3 6 3 11 14 11 11 1 17 -2 14 -7 -3 -5 0 -12 6 -16 8 -5 9 -3 4
7 -5 8 -4 10 0 6 14 -12 15 -38 2 -31 -8 5 -7 2 1 -7 17 -19 15 -32 -5 -25
-15 5 -15 4 1 -9 11 -8 14 -15 7 -15 -7 0 -9 -5 -5 -11 5 -8 9 -7 15 4 11 20
35 16 55 -9 14 -16 14 -15 0 9 -17 27 -16 27 3 15 11 -6 18 -15 15 -19 -2 -4
4 -13 14 -20 16 -13 16 -13 2 6 -14 19 -14 19 3 6 15 -12 17 -12 11 3 -3 9 -1
16 6 16 6 0 9 -4 5 -9 -3 -5 -1 -12 4 -16 6 -3 8 -13 5 -23 -5 -13 -4 -14 4
-4 7 11 10 11 15 -2 8 -19 5 -32 -5 -28 -5 1 -8 -2 -8 -8 0 -5 7 -10 15 -10 8
0 15 4 15 9 0 6 9 8 20 6 11 -2 20 1 20 6 0 6 4 8 9 4 5 -3 12 -1 16 5 4 6 11
8 16 5 5 -3 6 0 3 8 -2 7 1 14 8 14 7 0 32 12 55 27 29 19 40 33 36 44 -4 10
-2 13 5 8 7 -4 12 -4 13 1 7 55 4 64 -28 95 -18 17 -33 29 -33 24 0 -4 -16 5
-35 20 -19 14 -35 23 -35 19 0 -5 -9 0 -20 10 -11 10 -20 15 -20 10 0 -4 -7
-2 -15 5 -8 7 -15 9 -15 5 0 -4 -7 -1 -17 6 -9 8 -23 14 -32 14 -9 1 -25 6
-36 12 -11 6 -28 9 -37 8 -10 -2 -18 1 -18 7 0 6 -9 8 -20 5 -10 -3 -24 1 -31
9 -6 8 -22 12 -35 10 -13 -3 -26 -1 -29 4 -3 4 -13 7 -23 6 -9 -2 -20 1 -23 6
-3 5 -9 2 -12 -7 -5 -11 -3 -14 6 -9 7 5 6 0 -3 -12 -8 -10 -16 -21 -18 -24
-2 -3 -2 4 0 15 2 13 -2 19 -10 17 -8 -1 -11 2 -7 8 3 6 11 8 16 5 5 -4 9 -1
9 4 0 16 -27 13 -33 -3z m98 -17 c6 -4 19 -5 30 -3 11 1 27 -4 37 -13 9 -8 21
-12 27 -9 5 4 12 2 15 -3 4 -5 14 -8 24 -6 9 1 26 -2 37 -8 11 -6 27 -11 36
-12 9 0 23 -6 32 -14 10 -7 17 -10 17 -6 0 4 7 2 15 -5 8 -7 15 -9 15 -5 0 5
8 1 18 -8 9 -8 22 -17 27 -19 6 -2 9 -7 7 -12 -2 -5 4 -6 12 -3 8 3 20 -1 26
-8 7 -8 16 -13 20 -10 4 2 19 -9 34 -25 15 -17 21 -30 14 -30 -9 0 -8 -3 2
-10 13 -9 13 -10 0 -10 -12 0 -12 -2 -2 -9 11 -6 10 -10 -3 -15 -11 -4 -15
-12 -11 -23 4 -10 4 -14 0 -11 -3 4 -18 -4 -32 -18 -15 -13 -30 -25 -34 -25
-5 -1 -12 -2 -18 -3 -5 0 -16 -10 -24 -21 -9 -11 -16 -16 -16 -12 0 4 -9 3
-19 -3 -16 -8 -23 -5 -43 23 -13 17 -23 37 -23 42 0 6 -11 9 -23 8 -12 -2 -22
2 -22 8 0 5 -5 7 -10 4 -6 -3 -13 1 -16 10 -5 13 -9 14 -15 4 -16 -26 -35 -18
-34 15 2 34 -29 84 -40 66 -3 -6 -10 -8 -15 -5 -4 3 -13 -2 -20 -10 -7 -8 -16
-13 -20 -10 -4 3 -13 -2 -20 -10 -10 -12 -10 -15 0 -15 10 0 9 -4 -1 -16 -11
-14 -10 -19 9 -34 21 -18 31 -37 13 -25 -5 3 -12 1 -16 -5 -4 -6 -11 -8 -16
-4 -13 8 -50 -26 -43 -38 3 -5 12 -4 20 3 12 10 13 9 8 -5 -4 -10 -13 -15 -23
-12 -11 4 -10 2 3 -9 11 -8 15 -16 8 -16 -7 -1 -18 -2 -24 -3 -7 -1 -18 2 -25
7 -7 5 -18 5 -25 1 -25 -16 -45 -11 -40 8 2 10 1 18 -4 17 -30 -5 -30 5 -2 31
27 24 30 31 18 39 -9 6 -19 6 -26 0 -8 -6 -10 -1 -10 17 1 15 10 32 19 39 16
11 15 13 -3 30 -19 17 -21 17 -40 0 -19 -17 -19 -17 -15 5 2 13 7 25 10 28 2
3 0 11 -6 18 -7 8 -6 14 2 20 7 4 9 3 6 -3 -4 -6 5 -21 20 -34 24 -22 26 -22
20 -4 -5 14 -1 12 14 -8 21 -27 22 -27 41 -10 11 10 28 18 37 18 9 0 36 14 59
31 37 27 40 33 25 39 -18 8 -27 11 -39 14 -4 0 -1 8 6 16 12 15 0 22 -14 8 -4
-4 -23 -8 -42 -8 l-34 -1 21 22 c12 13 24 23 28 22 18 -2 34 3 28 9 -4 3 -2
12 4 19 10 12 26 13 44 3z m-318 -74 c0 -8 -4 -12 -9 -9 -5 3 -6 10 -3 15 9
13 12 11 12 -6z m62 -28 c8 -10 7 -14 -2 -14 -8 0 -14 6 -14 14 0 7 1 13 2 13
2 0 8 -6 14 -13z m351 -279 c0 -5 5 -6 12 -2 7 4 8 3 4 -4 -5 -8 -13 -9 -25
-2 -10 5 -22 6 -26 2 -5 -4 -5 -2 -2 4 7 13 37 14 37 2z"/>
<path d="M6799 7894 c-3 -10 -7 -25 -8 -33 0 -6 -10 -8 -20 -6 -11 2 -24 -2
-30 -9 -8 -10 -6 -13 12 -12 12 1 28 5 35 9 19 13 35 -2 21 -19 -7 -9 -8 -14
-3 -12 5 1 20 -4 32 -11 23 -12 23 -13 5 -29 -40 -36 -79 -59 -95 -56 -9 1
-24 -7 -34 -17 -17 -18 -18 -18 -38 -2 -21 18 -21 18 -3 -3 18 -21 18 -22 0
-35 -18 -14 -31 -45 -14 -35 5 3 20 -3 34 -14 29 -23 41 -26 34 -7 -3 8 1 14
8 14 10 0 11 -6 6 -16 -5 -9 -7 -24 -6 -33 4 -21 -10 -32 -27 -22 -8 5 -6 11
6 19 15 12 15 13 -1 19 -11 5 -25 -2 -42 -19 -14 -15 -21 -25 -16 -24 19 3 35
-1 34 -8 -3 -20 2 -24 16 -13 8 6 20 8 27 4 21 -14 40 -14 30 -1 -12 17 -9 29
15 60 13 16 24 23 28 17 3 -6 11 -8 16 -4 6 4 4 13 -6 24 -8 9 -13 24 -9 34 3
9 1 16 -5 16 -6 0 -11 5 -11 12 0 6 3 8 7 5 3 -4 15 0 25 10 10 9 18 12 18 8
0 -4 9 0 20 10 11 10 20 15 20 10 0 -4 6 -3 13 3 8 7 18 7 27 2 8 -6 11 -10 6
-10 -5 0 -2 -7 5 -17 8 -9 15 -24 15 -35 3 -39 4 -41 18 -23 13 18 13 18 24
-1 8 -14 12 -15 12 -4 0 12 3 11 11 -3 6 -9 15 -15 20 -11 11 6 41 -15 35 -25
-2 -3 6 -18 18 -33 15 -20 25 -25 36 -18 13 8 13 11 1 22 -10 9 -12 10 -7 1 5
-9 2 -11 -10 -6 -15 5 -14 8 5 22 17 13 19 19 9 29 -17 17 -33 15 -19 -2 9
-11 9 -16 0 -22 -8 -5 -9 -3 -4 6 5 8 4 11 -3 6 -7 -4 -10 1 -7 14 3 13 0 18
-7 14 -7 -4 -8 -3 -4 4 4 6 13 9 20 6 7 -3 19 3 27 12 12 16 12 17 -1 9 -13
-8 -13 -6 -1 8 7 9 18 14 25 10 6 -3 3 3 -6 14 -20 22 -23 33 -7 33 5 0 8 -4
5 -9 -3 -5 1 -14 9 -21 8 -7 12 -16 9 -21 -3 -5 0 -9 5 -9 14 0 14 10 -1 30
-7 9 3 -2 23 -24 24 -26 38 -35 43 -28 4 7 12 12 19 12 11 0 -31 -34 -45 -36
-5 -1 -11 -3 -15 -4 -5 -1 -12 -2 -17 -1 -14 3 -36 -21 -29 -32 4 -6 1 -7 -6
-2 -10 5 -9 2 0 -13 13 -20 13 -20 27 -1 7 11 18 17 23 13 13 -8 86 68 86 90
0 9 -4 16 -9 16 -4 0 -8 5 -8 11 0 5 6 7 13 3 7 -5 5 2 -4 16 -9 14 -19 23
-22 20 -3 -3 -14 3 -24 12 -15 14 -22 15 -31 6 -9 -9 -12 -9 -13 3 -1 7 0 19
1 24 1 6 -2 7 -6 2 -4 -4 -16 1 -27 10 -11 10 -17 12 -13 6 4 -7 3 -13 -2 -13
-6 0 -13 7 -16 16 -3 8 -10 13 -15 10 -5 -3 -14 1 -21 8 -6 8 -20 13 -32 11
-11 -2 -26 2 -34 10 -8 7 -23 12 -34 10 -11 -2 -22 1 -25 6 -4 5 -11 7 -16 3
-6 -3 -18 1 -27 9 -10 9 -26 14 -37 13 -11 -2 -24 -1 -30 3 -13 7 -35 10 -36
5z m36 -15 c6 -4 19 -5 30 -3 11 1 27 -4 37 -13 9 -8 21 -12 27 -9 5 4 12 2
16 -3 3 -5 14 -8 24 -6 11 2 27 -5 36 -15 13 -15 22 -17 36 -10 14 8 21 5 33
-12 10 -14 16 -17 16 -8 0 9 4 8 14 -6 8 -10 18 -16 22 -12 9 10 35 -12 28
-23 -3 -5 0 -9 6 -9 7 0 10 -7 6 -17 -4 -12 0 -11 12 5 14 18 20 20 30 10 7
-7 18 -13 24 -13 6 0 13 -6 16 -12 2 -7 -1 -13 -7 -13 -7 0 -4 -11 6 -27 10
-16 12 -24 5 -19 -7 4 -18 3 -25 -3 -10 -7 -24 3 -55 40 -24 27 -47 49 -51 49
-11 0 -10 -32 0 -46 6 -7 3 -16 -6 -24 -8 -7 -12 -16 -9 -21 3 -5 0 -9 -6 -9
-7 0 -10 7 -7 14 4 10 1 13 -8 9 -8 -3 -13 -9 -10 -13 3 -5 1 -12 -5 -15 -8
-5 -7 -12 2 -23 7 -10 0 -6 -15 7 -19 17 -27 20 -27 10 -1 -10 -4 -9 -11 4 -6
9 -14 15 -19 12 -5 -3 -12 -1 -15 5 -5 8 -11 8 -19 1 -9 -8 -13 -7 -13 4 0 8
4 12 9 9 4 -3 8 -1 8 3 0 5 -9 14 -20 21 -12 7 -18 17 -15 22 3 5 -3 14 -14
20 -13 7 -22 7 -26 0 -4 -6 -10 -8 -15 -5 -4 3 -13 -2 -20 -10 -7 -8 -16 -13
-20 -10 -4 3 -13 -2 -20 -10 -7 -8 -16 -13 -20 -10 -14 9 -23 -15 -11 -29 6
-7 8 -16 4 -19 -3 -4 2 -17 13 -29 10 -13 12 -17 4 -11 -11 10 -19 7 -41 -20
-28 -32 -30 -30 -17 23 2 9 -5 14 -17 14 -11 0 -19 -6 -17 -13 1 -8 -7 -6 -22
6 -14 10 -26 21 -26 25 0 12 62 58 71 52 5 -3 9 0 9 7 0 7 3 9 7 6 3 -4 15 1
25 10 17 15 20 15 28 3 9 -13 12 -11 9 6 -1 3 11 19 26 34 l27 28 -26 17 c-15
10 -24 20 -21 23 2 3 -1 12 -7 20 -25 30 -14 49 17 31z m395 -255 c-19 -22
-50 -37 -50 -24 0 5 6 10 14 10 7 0 19 7 26 15 7 8 15 15 17 15 3 0 0 -7 -7
-16z m-60 -23 c0 -5 -6 -14 -14 -20 -12 -10 -14 -9 -11 6 2 10 4 19 4 21 2 6
21 1 21 -7z m-475 -31 c-4 -6 -2 -17 5 -25 8 -10 8 -15 -1 -21 -8 -4 -9 -3 -5
5 4 6 0 14 -9 17 -12 5 -13 9 -4 20 13 16 23 19 14 4z m52 -35 c0 -8 -4 -12
-9 -9 -5 3 -6 10 -3 15 9 13 12 11 12 -6z"/>
<path d="M6816 7872 c-7 -12 18 -35 27 -25 4 3 7 1 7 -5 0 -7 -5 -12 -11 -12
-7 0 0 -10 15 -21 l27 -22 -25 -26 c-29 -30 -24 -51 6 -24 10 9 18 13 18 8 0
-4 6 -2 13 4 10 8 19 7 33 -3 10 -8 19 -18 19 -23 1 -10 55 -69 55 -58 0 4 7
2 15 -5 8 -7 15 -9 15 -5 0 4 7 2 15 -5 8 -7 16 -10 16 -6 1 3 3 11 4 16 1 6
3 14 4 19 0 5 9 8 19 6 24 -4 35 5 23 19 -10 12 -9 41 2 52 4 4 17 -1 29 -12
13 -11 18 -13 12 -4 -5 8 -9 19 -9 25 0 5 -7 10 -15 11 -8 1 -18 2 -22 4 -5 1
-12 3 -18 4 -5 0 -15 9 -22 18 -9 12 -17 15 -28 8 -8 -5 -11 -12 -7 -17 5 -4
13 -1 18 7 9 12 10 12 5 -3 -4 -12 -2 -16 6 -11 7 4 8 3 4 -4 -4 -7 1 -10 14
-7 12 2 18 0 14 -6 -3 -6 -9 -8 -12 -5 -6 7 -32 -13 -32 -25 0 -5 12 -2 28 7
24 14 25 14 8 0 -11 -9 -14 -16 -8 -16 7 0 12 -4 12 -8 0 -5 -7 -9 -15 -9 -8
0 -11 5 -8 11 4 6 0 5 -9 -1 -8 -7 -18 -10 -21 -7 -3 4 -4 -6 -1 -22 3 -22 2
-25 -6 -14 -9 13 -10 13 -10 0 -1 -12 -3 -11 -11 3 -6 9 -16 14 -22 11 -7 -4
-9 -4 -5 1 11 12 -11 47 -25 38 -8 -5 -8 -2 1 9 10 13 10 17 -3 22 -8 3 -15 0
-15 -6 0 -6 -10 1 -21 16 -12 15 -19 30 -15 33 3 4 6 0 6 -8 0 -11 2 -11 10 1
8 13 10 13 10 1 0 -11 4 -9 15 5 13 16 14 16 9 2 -7 -21 6 -23 26 -5 11 9 11
8 0 -7 -10 -13 -11 -17 -2 -12 8 5 11 3 10 -6 -2 -7 3 -12 10 -10 6 1 12 -2
12 -8 0 -14 -13 -13 -28 2 -7 7 -12 9 -12 6 0 -4 13 -16 29 -28 21 -14 32 -17
37 -9 4 7 3 9 -4 5 -6 -3 -9 1 -8 11 2 10 -2 22 -8 26 -6 5 0 6 14 2 l25 -6
-25 15 c-14 9 -21 15 -16 16 5 0 1 9 -8 19 -10 10 -25 18 -34 16 -9 -1 -22 2
-29 7 -7 6 -14 5 -18 -2 -5 -8 -12 -4 -22 9 -9 13 -22 19 -36 17 -12 -2 -27 1
-34 6 -7 5 -13 5 -17 0z m85 -33 c8 -16 13 -18 25 -8 8 6 14 9 14 5 0 -3 0 -9
0 -13 0 -5 -9 -8 -19 -8 -31 0 -36 -13 -15 -37 10 -13 15 -20 10 -16 -5 4 -15
3 -23 -3 -7 -6 -13 -8 -13 -4 0 5 -10 0 -22 -11 -16 -12 -14 -9 4 12 26 28 27
31 11 47 -9 9 -17 25 -18 35 -2 25 32 26 46 1z m96 -22 c10 -11 12 -36 3 -42
-5 -3 -7 3 -5 12 4 25 -5 36 -19 24 -9 -8 -13 -7 -13 3 0 14 21 16 34 3z m-24
-101 c4 -10 1 -13 -8 -9 -8 3 -12 9 -9 14 7 12 11 11 17 -5z m133 -19 c4 -3
-3 -5 -15 -2 -22 4 -47 -25 -33 -40 4 -5 2 -5 -4 -2 -8 5 -12 45 -5 53 4 4 51
-3 57 -9z"/>
<path d="M6875 7840 c3 -5 1 -10 -6 -10 -10 0 -10 -3 -2 -11 6 -6 16 -8 22 -5
12 8 4 36 -11 36 -5 0 -6 -4 -3 -10z"/>
<path d="M6924 7783 c4 -4 16 -8 28 -10 28 -4 18 6 -12 12 -12 2 -20 1 -16 -2z"/>
<path d="M7040 7760 c-9 -6 -10 -10 -3 -10 6 0 15 5 18 10 8 12 4 12 -15 0z"/>
<path d="M6988 7722 c13 -18 28 -30 33 -27 14 9 12 12 -23 37 l-33 23 23 -33z"/>
<path d="M7182 7730 c-10 -16 -8 -22 11 -35 12 -8 21 -18 20 -20 -8 -14 -1
-16 12 -5 10 9 12 16 5 25 -5 6 -6 16 -2 21 4 5 5 8 3 6 -2 -1 -12 5 -21 13
-14 13 -17 12 -28 -5z m26 -11 c-2 -3 3 -13 10 -22 10 -12 10 -17 1 -23 -7 -4
-9 -3 -5 4 3 6 -3 16 -14 22 -11 6 -18 16 -14 21 6 10 28 8 22 -2z"/>
<path d="M6779 7705 c-8 -9 -26 -17 -38 -20 -36 -7 -63 -35 -50 -51 12 -15 33
-9 24 7 -4 5 -2 9 4 9 5 0 12 -6 14 -12 4 -9 6 -9 6 1 1 11 5 10 15 -4 10 -14
11 -25 4 -40 -7 -16 -5 -15 10 3 19 25 22 48 8 70 -9 16 12 44 27 35 6 -3 7
-1 3 5 -9 15 -9 15 -27 -3z m-12 -38 c4 -4 7 -17 8 -28 2 -21 2 -21 -14 -2
-18 22 -58 25 -53 5 1 -8 -2 -11 -9 -6 -9 5 -6 12 9 25 22 17 45 19 59 6z"/>
<path d="M6616 7713 c-6 -14 -5 -15 5 -6 7 7 10 15 7 18 -3 3 -9 -2 -12 -12z"/>
<path d="M7133 7674 c4 -7 0 -17 -8 -24 -12 -10 -13 -16 -4 -26 9 -11 15 -11
25 -3 7 6 18 8 23 5 5 -4 12 -2 16 4 4 6 12 7 18 3 7 -3 4 3 -7 15 -10 12 -23
19 -28 16 -5 -3 -16 0 -25 8 -9 7 -14 8 -10 2z m12 -31 c-2 -10 -4 -19 -4 -21
-1 -2 -6 0 -11 3 -8 5 -7 11 1 21 15 18 18 18 14 -3z m39 -4 c-3 -5 -10 -7
-15 -3 -5 3 -7 10 -3 15 3 5 10 7 15 3 5 -3 7 -10 3 -15z"/>
<path d="M6600 7889 c-20 -16 -21 -18 -4 -10 12 6 23 8 26 6 3 -3 5 2 5 10 0
8 -1 15 -1 15 -1 0 -12 -10 -26 -21z"/>
<path d="M6533 7815 c0 -8 4 -12 9 -9 5 3 6 10 3 15 -9 13 -12 11 -12 -6z"/>
<path d="M5335 7780 c-33 -3 -130 -5 -215 -4 -109 2 -169 -1 -201 -11 -134
-39 -179 -103 -138 -194 20 -45 92 -122 136 -144 67 -35 198 -68 318 -82 33
-4 61 -7 61 -8 1 -1 5 -33 9 -70 13 -133 77 -274 168 -370 36 -39 50 -47 79
-47 46 0 77 26 84 70 5 32 1 42 -44 95 -75 91 -109 167 -119 268 l-5 57 43 0
c102 1 303 42 374 76 89 42 174 142 177 207 2 66 -40 107 -141 137 -56 17 -93
19 -241 18 -96 -1 -200 1 -230 4 -30 3 -82 2 -115 -2z"/>
<path d="M4220 7735 c-6 -8 -8 -20 -4 -27 18 -29 11 -58 -21 -83 -18 -13 -35
-21 -39 -18 -3 4 -6 0 -6 -8 0 -11 -2 -11 -10 1 -6 9 -10 10 -10 3 0 -6 4 -14
9 -17 10 -7 9 -31 -2 -42 -14 -14 5 -23 26 -12 12 7 27 12 32 13 6 0 10 14 10
30 0 17 5 30 12 30 6 0 15 3 19 7 4 4 12 3 19 -2 8 -6 12 -6 13 3 1 6 3 21 4
32 2 11 0 20 -4 20 -3 0 -16 13 -29 29 -22 28 -22 29 -4 42 10 8 14 14 8 14
-6 0 -16 -7 -23 -15z m47 -82 c0 -10 -4 -10 -16 -1 -9 7 -18 13 -20 15 -2 1 5
1 16 0 11 0 20 -7 20 -14z m-17 -19 c8 -8 9 -14 4 -13 -5 1 -12 0 -16 -1 -13
-4 -27 -7 -38 -9 -6 0 -8 -15 -5 -33 4 -23 2 -29 -4 -18 -5 8 -7 18 -4 23 3 5
-5 6 -18 2 -17 -5 -10 3 21 28 25 20 46 36 46 36 1 1 7 -6 14 -15z m-75 -73
c3 -6 -5 -15 -17 -21 -21 -10 -22 -10 -5 3 14 11 15 16 5 20 -9 4 -9 6 -1 6 6
1 14 -3 18 -8z"/>
<path d="M6576 7742 c-2 -4 -1 -14 3 -21 6 -10 10 -9 14 3 6 16 -8 32 -17 18z"/>
<path d="M6389 7725 c-5 -20 -4 -32 4 -48 5 -10 11 -16 14 -13 4 3 12 1 20 -5
15 -13 14 -14 17 24 2 15 1 25 -2 22 -3 -3 -16 2 -29 10 -13 9 -24 13 -24 10z
m18 -37 c4 -28 -6 -18 -12 12 -2 12 -1 20 2 16 4 -4 8 -16 10 -28z m29 -14 c1
-9 0 -13 -4 -10 -3 4 -7 14 -8 22 -1 9 0 13 4 10 3 -4 7 -14 8 -22z"/>
<path d="M6865 7679 c3 -4 -5 -15 -17 -23 -23 -17 -21 -26 9 -30 11 -2 17 -10
15 -21 -3 -14 1 -16 15 -11 20 8 14 1 -31 -32 -16 -12 -27 -22 -25 -23 36 -7
40 -6 35 6 -8 21 13 29 32 13 9 -8 24 -14 32 -13 8 1 21 3 29 3 11 2 10 5 -4
15 -13 10 -15 16 -6 21 7 5 20 1 31 -9 14 -12 20 -13 26 -4 4 7 3 10 -4 5 -6
-3 -17 2 -24 11 -13 18 -44 31 -34 14 10 -15 -22 -21 -34 -5 -7 8 -9 14 -4 14
4 0 3 5 -4 12 -17 17 -15 31 4 24 13 -5 14 -3 6 6 -6 7 -11 18 -11 23 0 6 -10
11 -21 11 -11 1 -17 -2 -15 -7z m23 -13 c-15 -11 -16 -15 -3 -34 10 -13 12
-23 5 -27 -6 -4 -10 -3 -9 2 1 4 -1 16 -6 26 -6 15 -10 16 -16 5 -6 -9 -9 -9
-9 -1 0 6 10 19 22 27 27 19 40 21 16 2z m61 -114 c3 -1 -4 -1 -15 1 -28 4
-45 17 -38 28 4 6 15 3 27 -8 12 -10 24 -19 26 -21z"/>
<path d="M6465 7630 c-4 -6 -11 -8 -16 -5 -5 4 -20 -3 -34 -13 -20 -16 -22
-21 -10 -26 9 -3 12 -12 8 -23 -5 -16 -4 -16 9 1 15 19 16 19 26 -1 6 -11 9
-23 6 -26 -3 -3 6 -4 20 -3 15 2 29 -1 32 -6 4 -5 10 -5 17 0 7 5 20 8 30 6
11 -1 16 1 12 4 -4 4 -28 7 -53 7 -35 0 -47 4 -47 15 0 8 5 14 10 13 6 -1 12
7 12 18 1 10 -3 19 -9 19 -5 0 -8 7 -4 15 6 17 0 20 -9 5z m-24 -19 c-8 -5 -9
-11 -3 -15 6 -3 13 -2 17 4 4 6 11 8 16 4 6 -4 6 -11 -2 -20 -9 -11 -15 -11
-25 -3 -8 6 -14 8 -14 5 0 -4 -5 -4 -10 -1 -13 8 6 35 24 35 6 0 5 -4 -3 -9z"/>
<path d="M7039 7578 c-1 -2 -3 -12 -4 -23 -2 -16 4 -21 21 -21 23 0 23 11 1
11 -7 0 -11 8 -11 18 2 14 -3 23 -7 15z"/>
</g>
</svg>
